<svg xmlns="http://www.w3.org/2000/svg" version="1.1" xmlns:xlink="http://www.w3.org/1999/xlink" xmlns:svgjs="http://svgjs.com/svgjs" width="2000" height="4000" preserveAspectRatio="none" viewBox="0 0 2000 4000">
    <g mask="url(&quot;#SvgjsMask1024&quot;)" fill="none">
        <rect width="2000" height="4000" x="0" y="0" fill="rgba(29, 44, 52, 1)"></rect>
        <path d="M270.83 500C270.83 402.6 76.59 413.33 0 271.93C-58.82 163.33 -88.07 47.9 0 0C161.93 -88.07 250 0 500 0C750 0 750 0 1000 0C1044.64 0 1046.5 -11.58 1089.29 0C1296.5 56.07 1306.07 135.29 1500 135.29C1599.88 135.29 1574.9 27.6 1676.92 0C1824.9 -40.04 1936.59 -98.13 2000 0C2098.13 151.87 2000 250 2000 500C2000 750 2000 750 2000 1000C2000 1250 2000 1250 2000 1500C2000 1750 2000 1750 2000 2000C2000 2220.59 2006.76 2221.46 2000 2441.18C1999.07 2471.46 1984.62 2471.91 1984.62 2500C1984.62 2512.68 1999.58 2509.14 2000 2522.73C2007.27 2759.14 2000 2761.36 2000 3000C2000 3250 2000 3250 2000 3500C2000 3750 2125 3875 2000 4000C1875 4125 1750 4000 1500 4000C1261.36 4000 1100.97 4119.41 1022.73 4000C937.17 3869.41 1180.62 3717.52 1172.41 3500C1169.26 3416.5 1087.39 3397.96 1000 3397.96C905.03 3397.96 811.75 3411.93 807.69 3500C797.86 3712.95 1053.31 3868.22 972.22 4000C899.47 4118.22 736.11 4000 500 4000C250 4000 125 4125 0 4000C-125 3875 0 3750 0 3500C0 3250 0 3250 0 3000C0 2750 0 2750 0 2500C0 2250 0 2250 0 2000C0 1761.36 -21.76 1747.55 0 1522.73C2.44 1497.55 48.39 1510.79 48.39 1500C48.39 1489.43 2.38 1504.59 0 1480C-21.82 1254.59 0 1240 0 1000C0 816.33 -74.37 769.94 0 632.65C61.05 519.94 270.83 582.96 270.83 500" stroke="rgba(1, 169, 45, 0.14)" stroke-width="2"></path>
        <path d="M1000 113.64C914.52 113.64 782.05 341.32 782.05 500C782.05 586.33 899.47 603.66 1000 603.66C1062.24 603.66 1107.59 566.5 1107.59 500C1107.59 321.49 1077.29 113.64 1000 113.64" stroke="rgba(1, 169, 45, 0.14)" stroke-width="2"></path>
        <path d="M1000 1876.34C913.44 1876.34 849.55 1908.93 833.33 2000C794 2220.76 826.84 2264.69 888.89 2500C910.18 2580.73 947.64 2632.08 1000 2632.08C1048.65 2632.08 1066.04 2575.17 1090.91 2500C1170.59 2259.13 1239.95 2211.72 1209.09 2000C1194.5 1899.89 1101.32 1876.34 1000 1876.34" stroke="rgba(1, 169, 45, 0.14)" stroke-width="2"></path>
        <path d="M500 2915.25C458.55 2915.25 423.08 2950.7 423.08 3000C423.08 3089.23 456.37 3192.31 500 3192.31C545.85 3192.31 602.04 3086.08 602.04 3000C602.04 2947.55 548.03 2915.25 500 2915.25" stroke="rgba(1, 169, 45, 0.14)" stroke-width="2"></path>
        <path d="M111.11 0C111.11 13.82 38.9 52.63 0 52.63C-16.65 52.63 -17.86 8.46 0 0C37.7 -17.86 111.11 -12.49 111.11 0" stroke="rgba(1, 169, 45, 0.14)" stroke-width="2"></path>
        <path d="M1265.82 500C1381.85 390.06 1373.84 282.35 1500 282.35C1656.11 282.35 1704.56 356.72 1830.36 500C1954.56 641.47 1938.5 670.6 2000 851.85C2023.32 920.6 2000 925.92 2000 1000C2000 1250 2000 1250 2000 1500C2000 1669.36 2073.89 1713.1 2000 1838.71C1926.83 1963.1 1747.21 1868.41 1705.88 2000C1643.36 2199.05 1707.31 2266.84 1792.31 2500C1854.37 2670.25 1931.74 2642.5 2000 2806.82C2035.59 2892.5 2000 2903.41 2000 3000C2000 3250 2000 3250 2000 3500C2000 3750 2125 3875 2000 4000C1875 4125 1750 4000 1500 4000C1356.06 4000 1212.12 4077.03 1212.12 4000C1212.12 3861.12 1349.86 3779.01 1500 3568.18C1527.89 3529.01 1568.18 3540.27 1568.18 3500C1568.18 3431.18 1566.3 3391.68 1500 3350C1282.21 3213.11 1234.06 3270.29 1000 3142.86C912.63 3095.29 857.14 3070.03 857.14 3000C857.14 2932.56 939.91 2943.78 1000 2867.92C1137.96 2693.78 1153.72 2697.96 1253.25 2500C1371.9 2264 1501.23 2194.17 1436.36 2000C1374.6 1815.14 1211.45 1741.94 1000 1741.94C819.35 1741.94 723.89 1824.35 652.17 2000C569.13 2203.38 739.39 2273.93 690.48 2500C663.3 2625.62 594.3 2600.83 500 2703.39C364.44 2850.83 354.06 2842.8 230.77 3000C104.06 3161.56 63.12 3340.91 0 3340.91C-52.27 3340.91 0 3170.45 0 3000C0 2750 0 2750 0 2500C0 2250 0 2250 0 2000C0 1856.06 -82.62 1803.59 0 1712.12C143.19 1553.59 451.61 1600.73 451.61 1500C451.61 1401.34 137.59 1465.66 0 1313.33C-88.22 1215.66 0 1156.66 0 1000C0 880.1 -66.6 760.2 0 760.2C126.03 760.2 256.51 832.24 385.25 1000C506.51 1158.02 439.21 1411.76 500 1411.76C561.4 1411.76 506.31 1161.71 629.63 1000C756.31 833.88 826.4 892.54 1000 756.1C1144.5 642.54 1131.85 626.93 1265.82 500" stroke="rgba(1, 169, 45, 0.14)" stroke-width="2"></path>
        <path d="M2000 236.11C1965.12 236.11 1869.23 79.52 1869.23 0C1869.23 -38.53 1976.69 -42.08 2000 0C2042.08 75.98 2030.51 236.11 2000 236.11" stroke="rgba(1, 169, 45, 0.14)" stroke-width="2"></path>
        <path d="M0 3780C175.92 3649.32 299.5 3569.02 500 3628.57C669.87 3679.02 740.74 3879.71 740.74 4000C740.74 4065.42 620.37 4000 500 4000C250 4000 173.61 4076.39 0 4000C-76.39 3966.39 -74.08 3835.03 0 3780" stroke="rgba(1, 169, 45, 0.14)" stroke-width="2"></path>
        <path d="M1424.05 500C1461.48 464.13 1459.08 429.41 1500 429.41C1550.63 429.41 1599.49 441.84 1607.14 500C1636.99 727.13 1502.68 775 1575 1000C1663.39 1275 1948.94 1286.62 1928.57 1500C1911.44 1679.47 1728.65 1759.23 1500 1785.71C1264.37 1813 1247.32 1703.27 1000 1607.53C878.27 1560.41 785.43 1602.93 761.9 1500C715.99 1299.17 771.34 1222.98 861.11 1000C890.39 927.25 938.01 963.6 1000 908.54C1219.48 713.6 1211.48 703.7 1424.05 500" stroke="rgba(1, 169, 45, 0.14)" stroke-width="2"></path>
        <path d="M0 887.76C58.99 887.76 180.33 938.19 180.33 1000C180.33 1067.64 55.28 1146.67 0 1146.67C-34.88 1146.67 0 1073.34 0 1000C0 943.88 -31.17 887.76 0 887.76" stroke="rgba(1, 169, 45, 0.14)" stroke-width="2"></path>
        <path d="M0 1901.52C153.01 1901.52 382.35 1925.43 382.35 2000C382.35 2083 128.05 2216.67 0 2216.67C-63.13 2216.67 0 2108.34 0 2000C0 1950.76 -38.16 1901.52 0 1901.52" stroke="rgba(1, 169, 45, 0.14)" stroke-width="2"></path>
        <path d="M1415.58 2500C1415.58 2393.46 1454.53 2290.32 1500 2290.32C1546.74 2290.32 1600 2392.88 1600 2500C1600 2633.13 1546.51 2770.83 1500 2770.83C1454.3 2770.83 1415.58 2633.71 1415.58 2500" stroke="rgba(1, 169, 45, 0.14)" stroke-width="2"></path>
        <path d="M0 2886.36C9.88 2886.36 38.46 2945.78 38.46 3000C38.46 3031.01 10.52 3056.82 0 3056.82C-8.71 3056.82 0 3028.41 0 3000C0 2943.18 -9.35 2886.36 0 2886.36" stroke="rgba(1, 169, 45, 0.14)" stroke-width="2"></path>
        <path d="M1852.27 3500C1954.2 3365.08 1961.17 3190.48 2000 3190.48C2035.04 3190.48 2000 3345.24 2000 3500C2000 3750 2125 3875 2000 4000C1875 4125 1750 4000 1500 4000C1450.76 4000 1401.52 4026.35 1401.52 4000C1401.52 3952.49 1440.78 3917.96 1500 3852.27C1666.16 3667.96 1704.2 3695.98 1852.27 3500" stroke="rgba(1, 169, 45, 0.14)" stroke-width="2"></path>
        <path d="M466.67 4000C466.67 3996.28 485.51 3985.71 500 3985.71C506.8 3985.71 509.26 3995.37 509.26 4000C509.26 4002.52 504.63 4000 500 4000C483.34 4000 466.67 4003.42 466.67 4000" stroke="rgba(1, 169, 45, 0.14)" stroke-width="2"></path>
    </g>
    <defs>
        <mask id="SvgjsMask1024">
            <rect width="2000" height="4000" fill="#ffffff"></rect>
        </mask>
    </defs>
</svg>