<svg xmlns="http://www.w3.org/2000/svg" version="1.1" xmlns:xlink="http://www.w3.org/1999/xlink" xmlns:svgjs="http://svgjs.com/svgjs" width="2000" height="5000" preserveAspectRatio="none" viewBox="0 0 2000 5000">
    <g mask="url(&quot;#SvgjsMask1001&quot;)" fill="none">
        <path d="M195.12 0C322.6 182.11 232.56 290.89 350 500C385 562.32 428.64 511.83 500 542.86C753.64 653.14 792.56 796.15 1000 782.61C1120.88 774.72 1156.63 648.83 1156.63 500C1156.63 266.78 1083.53 256 1000 18.52C995.6 6 980.77 5.38 980.77 0C980.77 -3.88 990.38 0 1000 0C1250 0 1250 0 1500 0C1750 0 1875 -125 2000 0C2125 125 2000 250 2000 500C2000 741.66 2004.45 742.82 2000 983.33C1999.82 992.82 1990.74 991.88 1990.74 1000C1990.74 1006.97 1999.85 1005.37 2000 1013.51C2004.48 1255.37 2000 1256.76 2000 1500C2000 1750 2000 1750 2000 2000C2000 2155.17 2052.25 2177.35 2000 2310.34C1954.03 2427.35 1821.02 2379.64 1803.57 2500C1771.02 2724.47 1818.1 2784.46 1900 3000C1916.31 3042.93 1991.32 2973.57 2000 3016.95C2041.32 3223.57 2000 3258.48 2000 3500C2000 3750 2000 3750 2000 4000C2000 4250 2000 4250 2000 4500C2000 4750 2107.46 4857.46 2000 5000C1919 5107.46 1771.12 5067.67 1623.08 5000C1521.12 4953.39 1567.17 4771.43 1500 4771.43C1428.71 4771.43 1456.95 4949.35 1346.15 5000C1206.95 5063.63 1173.07 5000 1000 5000C750 5000 750 5000 500 5000C250 5000 125 5125 0 5000C-125 4875 0 4750 0 4500C0 4250 0 4250 0 4000C0 3750 0 3750 0 3500C0 3250 0 3250 0 3000C0 2750 0 2750 0 2500C0 2250 0 2250 0 2000C0 1770.55 -29.05 1754.14 0 1541.1C5.04 1504.14 68.18 1520.25 68.18 1500C68.18 1479.96 4.98 1497.05 0 1460.53C-29.11 1247.05 0 1230.26 0 1000C0 750 0 750 0 500C0 250 -70.17 179.83 0 0C27.39 -70.17 147.6 -67.89 195.12 0" stroke="rgba(233, 233, 233, 1)" stroke-width="2"></path>
        <path d="M500 1975C491.04 1975 485.51 1987.83 485.51 2000C485.51 2010.54 491.31 2020.41 500 2020.41C511.38 2020.41 525.64 2010.85 525.64 2000C525.64 1988.14 511.1 1975 500 1975" stroke="rgba(233, 233, 233, 1)" stroke-width="2"></path>
        <path d="M1000 2402.17C950.7 2402.17 924.68 2439.69 919.64 2500C899.68 2738.61 913.59 2767.3 950 3000C953.77 3024.06 974.56 3013.51 1000 3013.51C1049.56 3013.51 1085.59 3042.74 1100 3000C1172.13 2785.98 1208.96 2714.51 1173.08 2500C1158.96 2415.6 1077.42 2402.17 1000 2402.17" stroke="rgba(233, 233, 233, 1)" stroke-width="2"></path>
        <path d="M1307.23 500C1329.84 257.53 1110.17 152.62 1169.01 0C1206.55 -97.38 1334.51 0 1500 0C1750 0 1875 -125 2000 0C2125 125 2000 250 2000 500C2000 533.34 2014.27 537.03 2000 566.67C1893.9 787.03 1899.84 797.83 1759.26 1000C1649.84 1157.35 1642.99 1157.87 1500 1285.71C1363.36 1407.87 1200 1377.05 1200 1500C1200 1648.26 1330.71 1688.35 1500 1828.13C1633.49 1938.35 1805.56 1895.18 1805.56 2000C1805.56 2125.85 1679.29 2260.44 1500 2289.47C1276.51 2325.66 1236.15 2234.98 1000 2130.43C909.22 2090.24 919.75 2068.88 846.15 2000C669.75 1834.91 669.8 1834.41 500 1662.5C422.86 1584.41 439.88 1564.21 352.27 1500C189.88 1380.99 101.97 1440.78 0 1296.05C-74.16 1190.78 0 1148.03 0 1000C0 799.11 -109.57 659.26 0 598.21C140.43 519.97 266.14 621.8 500 721.43C737.73 822.7 746.92 839.01 943.18 1000C996.92 1044.08 967.81 1131.58 1000 1131.58C1034.1 1131.58 1042.57 1068.22 1075.76 1000C1196.19 752.43 1283.22 757.53 1307.23 500" stroke="rgba(233, 233, 233, 1)" stroke-width="2"></path>
        <path d="M1828.13 1500C1828.13 1410.69 1948.05 1351.35 2000 1351.35C2033.98 1351.35 2000 1425.68 2000 1500C2000 1652.78 2040.02 1805.56 2000 1805.56C1954.08 1805.56 1828.13 1637.79 1828.13 1500" stroke="rgba(233, 233, 233, 1)" stroke-width="2"></path>
        <path d="M0 1712.33C90.21 1712.33 165.99 1844.16 304.35 2000C415.99 2125.75 395.88 2142.73 500 2275.51C591.92 2392.73 696.43 2375.86 696.43 2500C696.43 2677.76 605.24 2693.99 500 2879.31C463.27 2943.99 434.07 2929.87 412.5 3000C338.62 3240.21 284.25 3261.93 309.09 3500C328 3681.29 411.79 3838.71 500 3838.71C584.45 3838.71 543.83 3645.14 654.41 3500C793.83 3317 801.17 3216.72 1000 3182.43C1223.96 3143.81 1246.84 3342.43 1500 3354.17C1746.84 3365.62 1836.18 3181.03 2000 3228.81C2086.18 3253.95 2000 3364.4 2000 3500C2000 3750 2000 3750 2000 4000C2000 4250 2000 4250 2000 4500C2000 4750 2067.42 4817.42 2000 5000C1975.11 5067.42 1869.35 5062.06 1815.38 5000C1651.96 4812.06 1698.17 4744.95 1565.22 4500C1540.48 4454.41 1548.04 4433.47 1500 4418.92C1265.43 4347.86 1237.19 4304.24 1000 4328.77C845.14 4344.78 715.91 4389.81 715.91 4500C715.91 4649.03 862.16 4670.44 1000 4847.22C1057.09 4920.44 1105.77 4951.32 1105.77 5000C1105.77 5027.71 1052.89 5000 1000 5000C750 5000 750 5000 500 5000C250 5000 125 5125 0 5000C-125 4875 0 4750 0 4500C0 4427.42 -39.03 4411.61 0 4354.84C132.84 4161.61 343.75 4153.01 343.75 4000C343.75 3877.38 97.28 3945.07 0 3803.57C-74.59 3695.07 0 3651.78 0 3500C0 3250 0 3250 0 3000C0 2750 0 2750 0 2500C0 2250 0 2250 0 2000C0 1856.16 -61.97 1712.33 0 1712.33" stroke="rgba(233, 233, 233, 1)" stroke-width="2"></path>
        <path d="M1457.83 500C1430.12 246.9 1328.88 191.97 1345.07 0C1349.96 -58.03 1422.53 0 1500 0C1661.76 0 1800.06 -93.89 1823.53 0C1862.56 156.11 1700.96 243.17 1625 500C1553.08 743.17 1585.59 754.61 1527.78 1000C1523.09 1019.91 1515.74 1030.61 1500 1030.61C1479.13 1030.61 1456.63 1026.2 1454.55 1000C1435.55 760.9 1484.86 746.9 1457.83 500" stroke="rgba(233, 233, 233, 1)" stroke-width="2"></path>
        <path d="M0 821.43C184.8 784.47 259.68 834.89 500 900C589.22 924.17 659.09 930.71 659.09 1000C659.09 1115.32 623.97 1244.48 500 1269.23C294.42 1310.27 199.41 1238.95 0 1131.58C-50.59 1104.34 0 1065.79 0 1000C0 910.71 -65.2 834.47 0 821.43" stroke="rgba(233, 233, 233, 1)" stroke-width="2"></path>
        <path d="M0 1883.56C36.51 1883.56 123.19 1933.18 123.19 2000C123.19 2095.06 33.12 2207.32 0 2207.32C-28.47 2207.32 0 2103.66 0 2000C0 1941.78 -25.08 1883.56 0 1883.56" stroke="rgba(233, 233, 233, 1)" stroke-width="2"></path>
        <path d="M0 2875C28.08 2875 90.08 2924.25 100 3000C130.99 3236.75 122.5 3263.93 81.82 3500C72.5 3554.11 24.05 3580.36 0 3580.36C-16.86 3580.36 0 3540.18 0 3500C0 3250 0 3250 0 3000C0 2937.5 -21.92 2875 0 2875" stroke="rgba(233, 233, 233, 1)" stroke-width="2"></path>
        <path d="M838.24 3500C883.21 3403.61 909.87 3351.35 1000 3351.35C1128.25 3351.35 1170.79 3390.86 1275 3500C1420.79 3652.68 1366.36 3875 1500 3875C1658.86 3875 1666.58 3668.02 1860 3500C1916.58 3450.86 1949.65 3440.68 2000 3440.68C2019.65 3440.68 2000 3470.34 2000 3500C2000 3750 2000 3750 2000 4000C2000 4250 2000 4250 2000 4500C2000 4734.38 2039.6 4968.75 2000 4968.75C1958.08 4968.75 1956.96 4713.05 1836.96 4500C1706.96 4269.21 1715.62 4169.31 1500 4081.08C1297.14 3998.07 1239.66 4181.74 1000 4157.53C838.35 4141.2 729.43 4130.33 697.37 4000C648.55 3801.56 731.9 3727.93 838.24 3500" stroke="rgba(233, 233, 233, 1)" stroke-width="2"></path>
    </g>
    <defs>
        <mask id="SvgjsMask1001">
            <rect width="2000" height="5000" fill="#ffffff"></rect>
        </mask>
    </defs>
</svg>